<?xml version="1.0" encoding="utf-8"?>
<!-- Generator: Adobe Illustrator 19.0.0, SVG Export Plug-In . SVG Version: 6.00 Build 0)  -->
<svg version="1.1" id="Layer_1" xmlns="http://www.w3.org/2000/svg" xmlns:xlink="http://www.w3.org/1999/xlink" x="0px" y="0px"
	 viewBox="0 0 122.6 24.1" style="enable-background:new 0 0 122.6 24.1;" xml:space="preserve">
<style type="text/css">
	.st0{fill:#FFFFFF;}
	.st1{fill:#38C4DE;}
</style>
<g id="XMLID_1379_">
	<g id="XMLID_1396_">
		<path id="XMLID_1628_" class="st0" d="M37.2,17.2h-8.4V5.9h8.3v2h-6.2v2.4h5.3v2h-5.3v2.9h6.3V17.2z"/>
		<path id="XMLID_1624_" class="st0" d="M47.7,13.2l-2.4,4h-2.6l3.7-5.8l-3.5-5.6h2.6l2.2,3.7L50,5.9h2.6l-3.5,5.6l3.7,5.8h-2.6
			L47.7,13.2z"/>
		<path id="XMLID_1595_" class="st0" d="M68.6,11.5c0,3.3-2.3,5.9-5.6,5.9c-3.2,0-5.6-2.6-5.6-5.9c0-3.3,2.3-5.9,5.6-5.9
			C66.3,5.6,68.6,8.2,68.6,11.5z M66.4,11.5c0-2.1-1.5-3.9-3.4-3.9c-1.9,0-3.4,1.8-3.4,3.9c0,2.1,1.5,3.9,3.4,3.9
			C64.9,15.4,66.4,13.6,66.4,11.5z"/>
		<path id="XMLID_1587_" class="st0" d="M83.7,9.3h-2.2c0-1-0.8-1.7-2.2-1.7c-1.1,0-2.2,0.4-2.2,1.3c0,0.8,0.8,1.1,2.5,1.4
			c2.7,0.5,4.4,1.2,4.4,3.5c0,2.2-1.8,3.6-4.7,3.6c-2.2,0-4.7-1.2-4.7-4h2.2c0,1.3,1.3,2,2.5,2c1.2,0,2.5-0.4,2.5-1.5
			c0-0.7-0.6-1.2-2.7-1.6c-2.1-0.4-4.2-1-4.2-3.5c0-2,1.7-3.3,4.4-3.3C82.3,5.6,83.7,7.5,83.7,9.3z"/>
		<path id="XMLID_1537_" class="st0" d="M92.8,17.2h-2.2V5.9h2.2V17.2z"/>
		<path id="XMLID_1525_" class="st0" d="M104.3,7.9v9.4h-2.2V7.9h-3.1v-2h8.3v2H104.3z"/>
		<path id="XMLID_1397_" class="st0" d="M122,17.2h-8.4V5.9h8.3v2h-6.2v2.4h5.3v2h-5.3v2.9h6.3V17.2z"/>
	</g>
	<g id="XMLID_1380_">
		<path id="XMLID_1395_" class="st1" d="M14.2,10.7c-2,0-3.6-1.6-3.6-3.6V4.5c0-2,1.6-3.6,3.6-3.6c2,0,3.6,1.6,3.6,3.6v2.6
			C17.9,9.1,16.2,10.7,14.2,10.7L14.2,10.7z"/>
		<path id="XMLID_1385_" class="st0" d="M14.2,23.2c-2,0-3.6-1.6-3.6-3.6v-2.5c0-4.2-2.2-6.4-6.4-6.4c-2,0-3.6-1.6-3.6-3.6V4.5
			c0-2,1.6-3.6,3.6-3.6c2,0,3.6,1.6,3.6,3.6v2.6c0,5,4,6.4,6.4,6.4c2,0,3.6,1.6,3.6,3.6v2.5C17.9,21.6,16.2,23.2,14.2,23.2
			L14.2,23.2z"/>
	</g>
</g>
</svg>
